<svg xmlns="http://www.w3.org/2000/svg" xmlns:xlink="http://www.w3.org/1999/xlink" id="Layer_1" x="0px" y="0px" viewBox="0 0 255.5 22.7" style="enable-background:new 0 0 255.5 22.7;" xml:space="preserve"><style type="text/css">	.st0{fill:#92979C;}	.st1{fill:#FFFFFF;}	.st2{fill:#252323;}</style><g>	<g>		<path class="st0" d="M35,1.3H3.8c-1.1,0-2,0.9-2,2v15.4c0,1.1,0.9,2,2,2h31.1c1.1,0,2-0.9,2-2V3.3C37,2.2,36,1.3,35,1.3z"></path>		<path class="st1" d="M30,5.1c-2.6-1.5-6.3-2.3-10.6-2.3c-4.4,0-8.1,0.8-10.7,2.3c-2.4,1.4-3.8,3.5-3.8,5.7s1.4,4.3,3.8,5.7   c2.6,1.5,6.3,2.3,10.7,2.3c4.3,0,8-0.8,10.6-2.3c2.5-1.4,3.8-3.5,3.8-5.7S32.5,6.5,30,5.1z M14.9,12.7H22c4.2,0,6.7-1.1,6.7-2.9   c0-2.6-3.9-3-6.2-3h-9v0.6h8.9c4.7,0,4.9,1.9,4.9,2.3c0,1.1-1.3,2.3-5.1,2.3h-8.8v5.1c-4.2-1.1-6.7-3.5-6.7-6.3   c0-4.2,5.2-7.1,12.6-7.1s12.5,2.9,12.5,7.1s-5.1,7.1-12.5,7.1c-1.6,0-3.1-0.1-4.6-0.4v-4.8C14.7,12.7,14.9,12.7,14.9,12.7z"></path>	</g>	<g>		<path class="st2" d="M49.2,13.1h11c7.4,0,11.6-2.1,11.6-5.6c0-3.7-3.9-5.7-10.8-5.7H45.5v2.5h15.3c7.1,0,7.3,2.8,7.3,3.2   c0,1.6-2.4,3.1-7.6,3.1h-15V21h3.7V13.1L49.2,13.1z"></path>		<polygon class="st2" points="125.4,18.4 106.6,18.4 106.6,1.7 102.8,1.7 102.8,20.9 125.4,20.9   "></polygon>		<polygon class="st2" points="72.3,20.9 84.8,4.8 96.7,20.7 96.8,20.9 101.2,20.9 86.4,2 86.2,1.7 83.2,1.7 68.1,20.9   "></polygon>		<path class="st2" d="M190.4,4.4c3.7,0,6.6,0.2,8.7,1c3.2,1.2,4.6,3,4.6,5.9c0,2.4-1.3,4.3-4,5.5c-2.8,1.3-6.4,1.6-8.9,1.6h-6.1   v-7.9H181V21h9.6c10.5,0,16.8-3.6,16.8-9.6c0-2.8-1.3-5.1-3.7-6.7c-2.8-1.9-7.2-2.8-13-2.8H181v2.5H190.4L190.4,4.4z"></path>		<polygon class="st2" points="162.6,4.8 174.6,20.7 174.6,20.9 178.9,20.9 164.1,1.7 160.9,1.7 147.9,18.4 131.4,18.4 131.4,1.7    127.7,1.7 127.7,20.9 150.1,20.9   "></polygon>		<path class="st2" d="M236.6,21.3L236.6,21.3c10.3,0,17.2-4,17.2-10s-6.9-10-17.2-10s-17.2,4-17.2,10S226.2,21.3,236.6,21.3z    M223.1,11.3c0-4.4,5.6-7.5,13.5-7.5s13.5,3.1,13.5,7.5s-5.6,7.5-13.5,7.5C228.6,18.8,223.1,15.7,223.1,11.3z"></path>		<rect x="211.6" y="1.7" class="st2" width="3.7" height="19.2"></rect>	</g></g></svg>